<?xml version="1.0" encoding="UTF-8"?>
<svg width="91px" height="66px" viewBox="0 0 91 66" version="1.1" xmlns="http://www.w3.org/2000/svg" xmlns:xlink="http://www.w3.org/1999/xlink">
    <title>label</title>
    <g id="妇女保健_手术预约_120122" stroke="none" stroke-width="1" fill="none" fill-rule="evenodd">
        <g id="label" transform="translate(45.072834, 32.698465) rotate(-15.000000) translate(-45.072834, -32.698465) translate(4.572834, 9.698465)">
            <ellipse id="椭圆形" stroke="#FF77A3" stroke-width="0.7" cx="40.5" cy="23" rx="40.15" ry="22.65"></ellipse>
            <path d="M41.3079052,43.2121212 L40.6096293,43.2121212 L40.6105644,43.5605214 L41.3122214,43.5560322 L41.3079052,43.2121212 Z M39.9078621,43.2121212 L39.2109828,43.2121212 L39.2053171,43.5489722 C39.4383475,43.5531663 39.6716629,43.556228 39.9052449,43.5581547 L39.9078621,43.2121212 Z M42.7065517,43.2121212 L42.0075776,43.2121212 L42.0150154,43.5446675 C42.2491325,43.5397329 42.482948,43.5336546 42.7164426,43.5264354 L42.7065517,43.2121212 Z M38.5113103,43.2121212 L37.8137328,43.2121212 L37.8032363,43.5099593 L38.5028112,43.5328763 L38.5113103,43.2121212 Z M44.112181,43.2121212 L43.4125086,43.2121212 L43.424901,43.5009923 L44.1258956,43.4688186 L44.112181,43.2121212 Z M37.110569,43.2121212 L36.4108966,43.2121212 L36.3977349,43.4429555 L37.0986493,43.4798854 L37.110569,43.2121212 Z M45.5157155,43.2121212 L44.8139483,43.2121212 L44.8275817,43.4295894 C45.0614713,43.4153359 45.2949473,43.399927 45.5279888,43.3833664 L45.5157155,43.2121212 Z M35.7098276,43.2121212 L35.0073621,43.2121212 L34.9975862,43.348015 L35.6978247,43.3990436 L35.7098276,43.2121212 Z M46.926931,43.2121212 L46.223069,43.2121212 L46.2333414,43.3296189 C46.4668768,43.3106202 46.6999379,43.2904607 46.9325027,43.2691446 L46.926931,43.2121212 Z M41.3043359,42.8591069 L40.6094933,42.8635526 L40.6099246,43.2120371 L41.3087484,43.2075642 L41.3043359,42.8591069 Z M39.2179061,42.8521158 L39.2112689,43.2005378 L39.9078621,43.2093333 L39.9110152,42.8612088 C39.6797062,42.8593008 39.4486637,42.8562689 39.2179061,42.8521158 Z M42.6948232,42.8297999 L42.0002733,42.8478532 L42.0074899,43.1962636 L42.7057916,43.1781128 L42.6948232,42.8297999 Z M37.8157893,43.1616992 C38.0473632,43.1704297 38.2795142,43.1780393 38.5122234,43.184518 L38.5222771,42.8361775 L37.8295861,42.813486 L37.8157893,43.1616992 Z M44.1076997,43.120807 L44.0903422,42.7727529 L43.396298,42.8046076 L43.4105185,43.1528032 C43.6435109,43.1432694 43.875911,43.1326006 44.1076997,43.120807 Z M36.4380361,42.7471476 L36.4179446,43.095055 L37.1147293,43.1317699 L37.1319717,42.7837098 C36.900278,42.7726612 36.6689593,42.7604727 36.4380361,42.7471476 Z M45.5031159,43.035767 L45.4783997,42.6881564 C45.247703,42.7045504 45.016572,42.7198046 44.7850276,42.7339151 L44.8059599,43.0817733 C45.0389964,43.0675729 45.2713883,43.052234 45.5031159,43.035767 Z M35.0243048,43.0005518 C35.2558518,43.0186077 35.4880809,43.0355357 35.7209722,43.0513251 L35.7451403,42.7036758 L35.051969,42.6531622 L35.0243048,43.0005518 Z M46.9001489,42.9221589 L46.8686498,42.575095 C46.6384607,42.5961933 46.4077756,42.6161473 46.1766164,42.6349527 L46.2048478,42.9822965 C46.4373187,42.9633848 46.6690925,42.9433353 46.9001489,42.9221589 Z M33.634818,42.8779242 C33.8655333,42.9006732 34.0969837,42.9222965 34.3291487,42.9427831 L34.3594668,42.5956143 C34.1288553,42.5752634 33.8987373,42.5537661 33.669135,42.5311268 L33.634818,42.8779242 Z M48.2523003,42.4338331 L47.5614893,42.507985 L47.5971738,42.8546449 L48.2917236,42.7800893 L48.2523003,42.4338331 Z M32.2392521,42.7255856 C32.4703588,42.7532734 32.7022662,42.779824 32.9349527,42.805226 L32.9728695,42.4588023 L32.2812991,42.3796368 L32.2392521,42.7255856 Z M49.6349525,42.2633363 C49.4059182,42.2940517 49.1762516,42.3236111 48.9459766,42.3520093 L48.9889272,42.6978472 L49.681775,42.6086733 L49.6349525,42.2633363 Z M30.8577461,42.5452486 L31.5486395,42.6391593 L31.5941194,42.2936437 L30.9067987,42.2002203 L30.8577461,42.5452486 Z M51.0552646,42.4095249 L51.0009297,42.0652857 L50.3142152,42.1685858 L50.3646406,42.513417 C50.5957359,42.4799304 50.8259515,42.4452956 51.0552646,42.4095249 Z M29.4711834,42.3338332 C29.7003487,42.3713478 29.930441,42.4077239 30.1614374,42.442949 L30.2142761,42.0984781 L29.5279574,41.9899865 L29.4711834,42.3338332 Z M52.4344086,42.1788164 L52.372879,41.8357859 L51.688765,41.9541222 L51.746506,42.2978083 C51.9767627,42.2592916 52.2060714,42.2196235 52.4344086,42.1788164 Z M28.1563814,41.7497798 L28.0920678,42.0923012 L28.7787501,42.2165303 L28.8388042,41.8732393 C28.6105338,41.8332572 28.3830506,41.7921018 28.1563814,41.7497798 Z M53.8113111,41.9166233 L53.7416011,41.5751551 L53.0606795,41.7088479 L53.1259869,42.051182 C53.3554595,42.0074822 53.583909,41.9626249 53.8113111,41.9166233 Z M26.7297681,41.8219368 C26.9572314,41.8697897 27.1857727,41.9164919 27.4153671,41.9620303 L27.4831206,41.6201701 C27.2551744,41.5749575 27.0281065,41.5285581 26.8019448,41.4809798 L26.7297681,41.8219368 Z M55.0851083,41.2872737 L54.4069625,41.4366409 L54.4804713,41.7773144 L55.1626309,41.6270596 L55.0851083,41.2872737 Z M25.3657286,41.518207 C25.5911782,41.5712239 25.817781,41.6230925 26.0455111,41.6737991 L26.1221778,41.3338192 C25.8957875,41.2834137 25.6703657,41.231819 25.4459417,41.1790439 L25.3657286,41.518207 Z M56.5263547,41.3009314 L56.4408254,40.9630649 C56.2171794,41.0194361 55.9924676,41.074621 55.7667199,41.1286102 L55.8480659,41.4675043 C56.0753592,41.4131455 56.3014643,41.3576165 56.5263547,41.3009314 Z M24.0070502,41.1812116 C24.2315559,41.2398381 24.4573094,41.297305 24.6842835,41.3535977 L24.7686038,41.0154286 L24.0960668,40.8442431 L24.0070502,41.1812116 Z M57.7609699,40.6130993 C57.5388816,40.674926 57.3156205,40.7355601 57.0912183,40.7949909 L57.1813495,41.131664 L57.8551629,40.9486626 L57.7609699,40.6130993 Z M22.6578139,40.8106396 C22.8801125,40.8747604 23.1037493,40.9377203 23.328696,40.9995043 L23.4217412,40.6636221 C23.198204,40.6022272 22.9758458,40.5396298 22.7546983,40.4758408 L22.6578139,40.8106396 Z M59.1811809,40.561191 L59.0784634,40.228129 C58.8581368,40.2956169 58.6365209,40.3619056 58.4136487,40.4269834 L58.5123426,40.7612559 C58.7366771,40.695748 58.959633,40.6290544 59.1811809,40.561191 Z M21.4259561,40.0736165 L21.3203502,40.4057773 L21.9857188,40.6120128 L22.087527,40.2786725 C21.8656943,40.2115259 21.6451595,40.1431699 21.4259561,40.0736165 Z M60.5017336,40.1372765 L60.3898865,39.807157 C60.1717377,39.8804671 59.9521742,39.9525733 59.7312305,40.0234627 L59.8383626,40.3551363 C60.0609854,40.2837068 60.2821194,40.2110813 60.5017336,40.1372765 Z M19.9874023,39.9625138 C20.2065207,40.0388064 20.4272101,40.1139122 20.6494386,40.1878141 L20.7597455,39.8571791 C20.5392891,39.7838662 20.3202684,39.7093305 20.1027186,39.6335858 L19.9874023,39.9625138 Z M61.8272596,39.6707417 L61.7061037,39.3439117 C61.4904627,39.4233292 61.2732685,39.5015388 61.0545571,39.578526 L61.1711231,39.9070151 C61.3914533,39.8294557 61.6101764,39.7506921 61.8272596,39.6707417 Z M18.671335,39.4828579 C18.887618,39.5653065 19.1055933,39.6465626 19.3252277,39.7266083 L19.4449989,39.3992702 C19.2271365,39.3198705 19.010848,39.2392454 18.7961699,39.1574101 L18.671335,39.4828579 Z M63.1419928,39.1639839 L63.010623,38.8411084 C62.7976619,38.9269546 62.5829929,39.0115874 62.3666538,39.0949906 L62.4932887,39.419746 C62.7112766,39.3357022 62.9275228,39.2504421 63.1419928,39.1639839 Z M17.3675821,38.9629045 C17.5813119,39.0520259 17.7968788,39.139941 18.0142472,39.2266308 L18.1441181,38.9031522 C17.9285142,38.8171681 17.7146458,38.7299489 17.5025513,38.6415118 L17.3675821,38.9629045 Z M64.4352752,38.6186529 L64.2935324,38.3001779 C64.0836057,38.3927177 63.8718013,38.4840393 63.6581584,38.5741244 L63.7938599,38.8952096 C64.0095743,38.8042519 64.2233918,38.7120597 64.4352752,38.6186529 Z M16.1108928,38.415383 C16.3214738,38.5112067 16.5340436,38.6058127 16.7485644,38.6991808 L16.8884845,38.3799044 C16.6759133,38.2873873 16.4652439,38.1936317 16.2565163,38.0986567 L16.1108928,38.415383 Z M65.7106314,38.0305159 L65.5584899,37.7168581 C65.3517406,37.8165619 65.1429193,37.9150401 64.9320673,38.0122722 L65.0785535,38.3286006 C65.2913249,38.2304831 65.5020308,38.1311144 65.7106314,38.0305159 Z M14.8458446,37.8131928 C15.05312,37.9163832 15.2625645,38.0183387 15.4741374,38.1190377 L15.624395,37.8044765 C15.4147475,37.7046939 15.2072013,37.6036632 15.0017983,37.5014059 L14.8458446,37.8131928 Z M66.9667364,37.3964632 L66.8026084,37.0888836 C66.5998825,37.1959738 66.3948751,37.301836 66.1876294,37.4064473 L66.3449529,37.7175479 C66.5544869,37.6117833 66.7617624,37.5047474 66.9667364,37.3964632 Z M13.6074558,37.1679152 C13.8102995,37.2785324 14.0155,37.3879037 14.2230139,37.4960059 L14.3850447,37.1873214 C14.179376,37.0801843 13.9760181,36.9717977 13.7750143,36.8621852 L13.6074558,37.1679152 Z M68.1963081,36.7159218 L68.0198011,36.4152475 C67.8219153,36.5299949 67.6215202,36.6435165 67.4186604,36.7557868 L67.5880706,37.0604984 C67.7932957,36.9469181 67.996057,36.832051 68.1963081,36.7159218 Z M12.3925529,36.4736086 C12.5908195,36.5923689 12.791667,36.7098652 12.9950483,36.8260722 L13.1685532,36.5236648 C12.9672846,36.4086654 12.7685647,36.2924145 12.5724388,36.1749385 L12.3925529,36.4736086 Z M69.3943298,35.986974 L69.2058225,35.6936488 C69.0131681,35.8166746 68.8177409,35.9384753 68.6195876,36.0590224 L68.8017123,36.3563379 C69.0019628,36.2345109 69.1995186,36.1113807 69.3943298,35.986974 Z M11.2063977,35.7276709 C11.399156,35.8549873 11.5947448,35.9810224 11.7931128,36.1057488 L11.9793866,35.8110057 C11.7830344,35.6875487 11.5895038,35.5628381 11.3988418,35.4369039 L11.2063977,35.7276709 Z M70.5574008,35.206 L70.355469,34.9217154 C70.1693052,35.0532294 69.9800861,35.1835279 69.7878599,35.3125788 L69.9829883,35.6015581 C70.1774316,35.4710156 70.3689205,35.3391533 70.5574008,35.206 Z M10.0549407,34.9272064 C10.2411878,35.0635741 10.4305465,35.1986439 10.6229607,35.3323857 L10.8230047,35.0467739 C10.6327352,34.9145291 10.4455849,34.7810363 10.2616026,34.6463288 L10.0549407,34.9272064 Z M71.6824524,34.3677033 L71.4664232,34.0939379 C71.2876833,34.2345437 71.1055666,34.3739467 70.9201228,34.5121111 L71.1288298,34.791478 C71.3166453,34.6515485 71.501206,34.5102796 71.6824524,34.3677033 Z M8.9472536,34.0708218 C9.12611849,34.2169999 9.30842344,34.3618601 9.49410677,34.5053692 L9.70795602,34.2299039 C9.52480847,34.088356 9.34511389,33.9455704 9.16892243,33.8015846 L8.9472536,34.0708218 Z M72.7401034,33.4876326 L72.5085437,33.2268212 C72.338186,33.3769658 72.1640932,33.5259246 71.9863162,33.6736577 L72.210208,33.9410562 C72.3904548,33.7912626 72.5671084,33.6401098 72.7401034,33.4876326 Z M7.88691887,33.1516106 C8.05655482,33.3078605 8.22998678,33.4627802 8.40714703,33.6163335 L8.63601982,33.3531705 C8.46137418,33.201796 8.29055409,33.0492022 8.12361072,32.8954308 L7.88691887,33.1516106 Z M73.7433991,32.5474295 L73.4961767,32.3013576 C73.3357783,32.4614874 73.1712489,32.6204581 73.0026401,32.7782251 L73.2410704,33.0327942 C73.4125226,32.8723736 73.5799896,32.7105725 73.7433991,32.5474295 Z M6.88393051,32.16563 C7.04304762,32.3329772 7.20638594,32.4989783 7.37387027,32.6635931 L7.61889454,32.4153408 C7.45423586,32.2535045 7.29382355,32.0904751 7.13770945,31.9262991 L6.88393051,32.16563 Z M74.7083982,31.5139215 L74.4442366,31.286059 C74.2958723,31.4570456 74.1429206,31.6269106 73.9854334,31.7956043 L74.2409817,32.0330509 C74.4012391,31.8613868 74.5570714,31.6883294 74.7083982,31.5139215 Z M5.95221956,31.1112634 C6.09822661,31.2896935 6.24890348,31.4667763 6.40416728,31.6424674 L6.66613756,31.4120985 C6.51362573,31.2395254 6.36581392,31.0658008 6.22275369,30.890976 L5.95221956,31.1112634 Z M75.5912285,30.4115371 L75.3093521,30.2059039 C75.1758319,30.3873826 75.0372667,30.5678001 74.8937075,30.7471021 L75.1669244,30.964067 C75.3132734,30.7812645 75.4547374,30.5970721 75.5912285,30.4115371 Z M5.11960001,30.0056396 C5.25051973,30.1955501 5.38660898,30.3841177 5.52777621,30.5712934 L5.80678925,30.3618074 C5.66841601,30.1783392 5.53522748,29.9937744 5.40727407,29.8081689 L5.11960001,30.0056396 Z M76.3740797,29.2426067 L76.0752585,29.062381 C75.9588369,29.2547517 75.8368686,29.446133 75.7094023,29.6364664 L75.9999835,29.8296507 C76.1301096,29.6353302 76.2548406,29.4396316 76.3740797,29.2426067 Z M4.3846973,28.8288358 C4.49757088,29.0300635 4.61613765,29.22997 4.74029728,29.4285016 L5.03644886,29.2439379 C4.91498795,29.0497205 4.79920941,28.8544805 4.68916118,28.6582777 L4.3846973,28.8288358 Z M77.026837,28.036606 L76.71154,27.8869351 C76.6144808,28.0897609 76.5113718,28.2916822 76.4022588,28.4926376 L76.7091609,28.6587847 C76.8210437,28.4527322 76.9269712,28.2453203 77.026837,28.036606 Z M3.76710341,27.5842031 C3.85882876,27.7962305 3.95677846,28.006979 4.06084375,28.2163902 L4.37372217,28.0617463 C4.27222447,27.8575108 4.17688535,27.6523473 4.08774907,27.4463176 L3.76710341,27.5842031 Z M77.5673871,26.7264105 L77.2375451,26.6121628 C77.1638531,26.8241067 77.0836689,27.0352561 76.997034,27.2455491 L77.3201616,27.3775371 C77.4090403,27.1617694 77.4914865,26.944707 77.5673871,26.7264105 Z M3.28747231,26.2813007 C3.35483776,26.5024918 3.42890119,26.7224764 3.50954733,26.9411926 L3.83722574,26.8209018 C3.75865216,26.6078106 3.68666408,26.393902 3.62130142,26.1792375 L3.28747231,26.2813007 Z M77.9500921,25.3715263 L77.6089535,25.2973568 C77.5611424,25.5166477 77.5064827,25.7352638 77.4450111,25.9531453 L77.7810437,26.047728 C77.8443043,25.8235145 77.9006934,25.5980927 77.9500921,25.3715263 Z M2.79310345,24.9452424 L2.61648554,24.9765661 L2.68391858,25.3288687 C2.70823353,25.4461095 2.73438386,25.5631538 2.76236384,25.6799921 L2.79310345,25.6721818 L2.79310345,24.9452424 Z M2.96034102,24.9161749 C3.00045657,25.1448376 3.04767867,25.3723925 3.10188768,25.5987753 L3.44150789,25.5179611 C3.38885438,25.2980916 3.34310427,25.0775296 3.30429302,24.8563338 L2.96034102,24.9161749 Z M78.2068966,23.9945758 L78.2068966,24.701303 L78.4232573,24.7350808 C78.4596992,24.4979985 78.4886717,24.2602243 78.5101352,24.0218347 L78.2068966,23.9945758 Z M78.1624188,23.99042 L77.8146621,23.9594513 C77.794505,24.1833305 77.7672925,24.406661 77.7330573,24.6293867 L78.078173,24.6821315 C78.1134481,24.4526265 78.1415699,24.2220346 78.1624188,23.99042 Z M2.79310345,23.5199394 L2.45657294,23.5360751 L2.47914651,23.8948493 C2.48855649,24.0142979 2.49985042,24.1336004 2.51302381,24.2527476 L2.79310345,24.2217879 L2.79310345,23.5199394 Z M2.80532436,23.5196819 C2.81627791,23.7523287 2.83456512,23.9839988 2.86006672,24.2146283 L3.20708607,24.176296 C3.18234501,23.9525249 3.16466548,23.7281932 3.15407892,23.5033555 L2.80532436,23.5196819 Z M78.2068966,22.5922727 L78.2068966,23 L78.1994117,22.593205 L77.8505085,22.6059815 C77.8552787,22.7354954 77.8576969,22.8651709 77.8577575,22.994998 L77.8539517,23.2855812 L78.2020086,23.2941212 L78.2068966,23 L78.2068966,23.2948182 L78.5519802,23.3041326 C78.5546999,23.2021809 78.5560333,23.100782 78.5560333,22.9948317 C78.5559688,22.8564162 78.5533934,22.7183125 78.548313,22.5803765 L78.2068966,22.5922727 Z M2.82857399,22.1153255 C2.81388236,22.298183 2.80372316,22.4816702 2.7981551,22.6657556 L2.79589655,22.8111212 L3.14380266,22.8170743 C3.14764679,22.5919611 3.15858678,22.3673232 3.17659213,22.1432137 L2.82857399,22.1153255 Z M2.48055069,22.0875016 L2.45743358,22.445949 C2.45161178,22.5655679 2.44767526,22.6853202 2.4456282,22.8051965 L2.79310345,22.8104242 L2.79310345,22.1120606 L2.48055069,22.0875016 Z M78.1506554,21.8865933 C78.1272291,21.6552981 78.0965483,21.4250375 78.0587327,21.1958756 L77.7142061,21.2523272 C77.7509296,21.4748479 77.780636,21.6979856 77.803292,21.9216839 L78.1506554,21.8865933 Z M78.2068966,21.1704545 L78.2068966,21.8806667 L78.4980271,21.8515846 C78.4739051,21.6134118 78.4422816,21.3758731 78.4031967,21.1390449 L78.2068966,21.1704545 Z M3.02717394,20.7351962 C2.97981681,20.9628638 2.93951459,21.1916735 2.90638714,21.421561 L3.25193273,21.4714236 C3.28398552,21.2489569 3.32303682,21.0270936 3.36905214,20.8058918 L3.02717394,20.7351962 Z M2.68535856,20.6641986 L2.61750169,21.0176512 C2.59673467,21.1356568 2.57782141,21.2538474 2.56076735,21.3722134 L2.79310345,21.4053333 L2.79310345,20.6860606 L2.68535856,20.6641986 Z M77.92117,20.4994179 C77.869119,20.2732914 77.8101005,20.0483216 77.744233,19.8245721 L77.4093602,19.9231679 C77.4733286,20.1404925 77.5305103,20.358564 77.580868,20.5773222 L77.92117,20.4994179 Z M3.39457453,19.3847219 C3.32027229,19.6052884 3.25264667,19.8270995 3.19181391,20.0500929 L3.52859982,20.1419678 C3.5875809,19.9257372 3.65326009,19.7102314 3.72559872,19.4955114 L3.39457453,19.3847219 Z M77.5252183,19.1543072 C77.4470605,18.9368135 77.3623988,18.7205609 77.2713457,18.5056099 L76.9495654,18.640837 C77.0383461,18.8503992 77.1207105,19.0608285 77.1966169,19.272063 L77.5252183,19.1543072 Z M3.92104678,18.073611 C3.82217438,18.2852249 3.72952538,18.4981615 3.64321008,18.7123617 L3.96724486,18.8421141 C4.05107528,18.6340956 4.14120388,18.4269178 4.23758745,18.2206425 L3.92104678,18.073611 Z M76.9909043,17.8888905 C76.8898887,17.6810884 76.7828588,17.4745879 76.6699203,17.2694456 L76.3639388,17.4372757 C76.4741193,17.6374085 76.5783378,17.8385107 76.6765486,18.0405211 L76.9909043,17.8888905 Z M4.56903003,16.8521973 C4.4491721,17.0536479 4.33504707,17.2564704 4.22675776,17.4606098 L4.5355632,17.6232062 C4.64092898,17.424597 4.75213968,17.2269292 4.86914813,17.0302633 L4.56903003,16.8521973 Z M76.3133491,16.65793 C76.1925549,16.4618285 76.0663117,16.2670556 75.9347154,16.0736628 L75.6455038,16.2688844 C75.774503,16.4584422 75.8980389,16.6490557 76.0160623,16.8406666 L76.3133491,16.65793 Z M5.34158722,15.6804506 C5.20429341,15.8698024 5.0721698,16.060538 4.94530932,16.2526075 L5.23645487,16.4449437 C5.3604658,16.2571714 5.48980894,16.0704212 5.62443454,15.8847497 L5.34158722,15.6804506 Z M75.5341032,15.5112795 C75.3963907,15.3263295 75.2537287,15.1427257 75.106205,14.960515 L74.8344488,15.1792989 C74.9791721,15.3580439 75.1189239,15.5379108 75.2536533,15.7188456 L75.5341032,15.5112795 Z M6.21505175,14.5748683 C6.06278999,14.7526094 5.9151971,14.9317381 5.77235725,15.1122095 L6.04635122,15.3281947 C6.18633677,15.1513307 6.33116164,14.9755535 6.48077459,14.8009154 L6.21505175,14.5748683 Z M74.6633238,14.4343215 C74.5112936,14.2603963 74.3547771,14.0878225 74.193854,13.9166429 L73.9395169,14.1553818 C74.0974774,14.3234168 74.2509319,14.4926233 74.3998287,14.662952 L74.6633238,14.4343215 Z M7.17346949,13.5360356 C7.00846663,13.7026407 6.84768454,13.8706305 6.69119963,14.0399641 L6.94762079,14.2764715 C7.10138392,14.1100777 7.25953884,13.9448237 7.42203362,13.7807571 L7.17346949,13.5360356 Z M73.6990385,13.408414 C73.5353861,13.2459993 73.3677069,13.0849218 73.1960725,12.92522 L72.9580089,13.1801303 C73.1270933,13.3374595 73.2921156,13.4959939 73.4530244,13.6556892 L73.6990385,13.408414 Z M8.20287245,12.5627938 C8.02776266,12.7181542 7.85644409,12.8748802 7.68898546,13.0329349 L7.9289644,13.2860496 C8.09378208,13.1304894 8.26254534,12.9760991 8.43520303,12.8229211 L8.20287245,12.5627938 Z M72.6709023,12.4516151 C72.4971117,12.2996447 72.3196786,12.1490007 72.1386681,11.9997177 L71.9161156,12.268227 C72.0946271,12.4154464 72.2694724,12.5638951 72.4406005,12.7135331 L72.6709023,12.4516151 Z M9.25240558,11.6837096 C9.06864297,11.8292228 8.88832484,11.9760879 8.71151394,12.1242714 L8.93599071,12.39118 C9.11024939,12.245135 9.28808766,12.1002855 9.46945516,11.9566698 L9.25240558,11.6837096 Z M71.5877228,11.5581324 C71.4058441,11.4164141 71.2206802,11.2760013 71.0322899,11.1369257 L70.8244554,11.41694 C71.0106675,11.5544047 71.1935763,11.6931109 71.3731324,11.833023 L71.5877228,11.5581324 Z M10.3509298,10.8590314 C10.1600349,10.9950215 9.97226778,11.1323447 9.78768567,11.2709703 L9.99777476,11.5493033 C10.1800191,11.4124357 10.3655078,11.27678 10.5541917,11.1423704 L10.3509298,10.8590314 Z M70.4601332,10.7255862 C70.2710246,10.5931584 70.0789293,10.462021 69.8839014,10.3322029 L69.6899813,10.6219913 C69.8827262,10.7502874 70.0724897,10.8798315 70.2592239,11.0105918 L70.4601332,10.7255862 Z M11.5125779,10.0727065 C11.3156262,10.1994625 11.1215134,10.3275305 10.930292,10.4568826 L11.1266816,10.7450099 C11.3155921,10.6172269 11.5074307,10.4906625 11.7021502,10.3653472 L11.5125779,10.0727065 Z M69.2945221,9.9495524 C69.099224,9.82586449 68.9012024,9.70345173 68.7005067,9.58234073 L68.5201017,9.88069862 C68.7185107,10.000432 68.9142213,10.1214168 69.1071871,10.2436248 L69.2945221,9.9495524 Z M12.7089293,9.33923631 C12.5066601,9.45740706 12.3069797,9.57687168 12.1099364,9.69760433 L12.2925566,9.99461647 C12.4876576,9.87507357 12.6854197,9.75675805 12.885797,9.63969724 L12.7089293,9.33923631 Z M68.0990665,9.22789876 C67.898518,9.11247288 67.6954795,8.99830661 67.4899971,8.8854245 L67.3210463,9.19039087 C67.524445,9.30212312 67.7253941,9.41510872 67.923849,9.52932232 L68.0990665,9.22789876 Z M13.936444,8.65486889 C13.7297513,8.76484775 13.5254224,8.87610133 13.3235017,8.98860579 L13.4938906,9.29277332 C13.69394,9.18131328 13.8963996,9.07108055 14.1012254,8.96209951 L13.936444,8.65486889 Z M66.8702735,8.55275841 C66.6656425,8.44542312 66.4587404,8.33932689 66.2496094,8.23449235 L66.0928583,8.54588054 C66.3000011,8.64971803 66.5049306,8.75480129 66.7076041,8.8611078 L66.8702735,8.55275841 Z M15.1876555,8.01871415 C14.9770214,8.12103382 14.7685547,8.22461213 14.5622966,8.32942693 L14.7210129,8.639822 C14.9252166,8.53605355 15.131604,8.43350877 15.3401332,8.33220939 L15.1876555,8.01871415 Z M65.6190833,7.9254784 C65.4107525,7.8256632 65.20034,7.72707051 64.9878848,7.62972138 L64.841751,7.94621259 C65.0524983,8.04277597 65.2612355,8.14058103 65.4679214,8.23960763 L65.6190833,7.9254784 Z M16.4623906,7.42662143 C16.248552,7.52156492 16.0367011,7.61774967 15.8268763,7.71515507 L15.9748795,8.03078037 C16.1828205,7.93425471 16.3927447,7.83894921 16.6046117,7.74488324 L16.4623906,7.42662143 Z M64.361296,7.34881791 C64.1494972,7.25592787 63.9357784,7.16424872 63.7201763,7.07380018 L63.5846022,7.39493903 C63.7984007,7.48462909 64.010371,7.57555508 64.2204739,7.66769893 L64.361296,7.34881791 Z M17.7550098,6.87768438 C17.5382386,6.9656919 17.3232973,7.05492669 17.1102221,7.14536943 L17.2471441,7.46593803 L17.8873094,7.2001818 L17.7550098,6.87768438 Z M63.0806873,6.81135435 C62.8658925,6.72512976 62.649325,6.64010473 62.4310193,6.55629778 L62.3051046,6.88133137 C62.5217224,6.96448698 62.7366751,7.04887369 62.9499251,7.13447528 L63.0806873,6.81135435 Z M19.0661735,6.36865032 C18.8470307,6.44995279 18.6295727,6.53246772 18.4138333,6.61617699 L18.5408139,6.94079699 C18.7550345,6.85767981 18.9708966,6.77577465 19.1883634,6.69509702 L19.0661735,6.36865032 Z M61.7715869,6.30879359 C61.5542241,6.22904629 61.3352243,6.15048721 61.1146201,6.07313381 L60.9983581,6.40173038 C61.2175034,6.47856932 61.435133,6.5566342 61.6512109,6.63591048 L61.7715869,6.30879359 Z M20.3907069,5.89900593 C20.169601,5.97386931 19.9500478,6.04993078 19.7320789,6.12717331 L19.8485934,6.45568041 C20.06542,6.37884104 20.2837411,6.30320888 20.5035211,6.22879784 L20.3907069,5.89900593 Z M60.4499625,5.84535627 C60.2299884,5.77169619 60.0084953,5.69921803 59.7855141,5.6279384 L59.6794658,5.95995902 C59.9003741,6.03057823 60.1199087,6.10241277 60.3380352,6.17544967 L60.4499625,5.84535627 Z M21.7303477,5.46599435 C21.5068955,5.53487204 21.2848843,5.60494176 21.0643445,5.6761873 L21.1721675,6.00763782 C21.3912758,5.9368563 21.6117436,5.86727655 21.8335369,5.79891102 L21.7303477,5.46599435 Z M59.1162996,5.41898062 C58.8946839,5.35140861 58.6716658,5.28500586 58.4472744,5.21978803 L58.3491226,5.55421925 C58.5720068,5.61899646 58.7936412,5.68498347 59.013993,5.75216866 L59.1162996,5.41898062 Z M23.0403711,5.08053182 C22.8149695,5.14376427 22.5909086,5.20818285 22.3682175,5.27377211 L22.4675975,5.60784182 L23.1347316,5.41604796 L23.0403711,5.08053182 Z M57.7715074,5.02811937 C57.5479618,4.966266 57.3231138,4.90557587 57.0969914,4.8460639 L57.0074962,5.18290582 C57.232216,5.24204652 57.4557994,5.30239233 57.6782146,5.36393281 L57.7715074,5.02811937 Z M24.479895,5.05697901 L24.3933555,4.71936838 L23.7177168,4.89516955 L23.8079794,5.23180705 C24.0308353,5.17233702 24.2548175,5.11405767 24.479895,5.05697901 Z M56.416575,4.67151391 C56.191625,4.61528872 55.9654682,4.56021842 55.7381311,4.50631723 L55.6575371,4.84539034 C55.8833944,4.8989411 56.1082242,4.95368705 56.3319964,5.00961885 L56.416575,4.67151391 Z M25.7295757,4.39745727 C25.5016125,4.44953133 25.2748016,4.50277421 25.0491692,4.55717186 L25.1311212,4.89592052 L25.8070169,4.7372619 L25.7295757,4.39745727 Z M54.9809943,4.68924934 L55.0575947,4.34925522 L54.3750796,4.20021824 L54.302036,4.54099156 C54.5292961,4.58922349 54.7556252,4.63864554 54.9809943,4.68924934 Z M27.097932,4.10180823 C26.8692106,4.14844025 26.6415548,4.19623107 26.4149896,4.24516729 L26.4889367,4.58574614 C26.7144722,4.53703277 26.9409325,4.48949614 27.1682894,4.44314424 L27.097932,4.10180823 Z M53.7043545,4.06184015 C53.4766623,4.01620491 53.2479269,3.97171574 53.0181725,3.92838573 L52.9537835,4.27089329 C53.1819932,4.31393369 53.4093626,4.35815641 53.6358641,4.40355399 L53.7043545,4.06184015 Z M28.5191606,4.1836066 L28.4570887,3.8406734 L27.7705409,3.96861458 L27.8366717,4.31079109 C28.0633412,4.26722338 28.2908465,4.22482616 28.5191606,4.1836066 Z M52.3236621,3.80149443 C52.0952785,3.76110293 51.8659294,3.72184967 51.6356382,3.6837472 L51.5779195,4.0274376 L52.2630305,4.14468435 L52.3236621,3.80149443 Z M29.8393744,3.60700031 C29.6087998,3.64336155 29.3791432,3.6808722 29.1504279,3.71951988 L29.2088749,4.06308709 L29.8942364,3.95115616 L29.8393744,3.60700031 Z M50.8911691,3.91769135 L50.9448832,3.57335511 L50.2535147,3.47057866 L50.2034245,3.81545881 C50.433358,3.84836879 50.6626146,3.88244829 50.8911691,3.91769135 Z M31.2572995,3.75120517 L31.2098818,3.40594906 L30.5187882,3.50358292 L30.5694789,3.84837525 C30.7980855,3.81482398 31.0273672,3.78243205 31.2572995,3.75120517 Z M49.509469,3.71995937 L49.5558351,3.37456074 L48.8640654,3.28687464 L48.8219111,3.6328101 C49.0517041,3.6607063 49.280898,3.6897578 49.509469,3.71995937 Z M32.6372295,3.57870109 L32.5974959,3.23248031 L31.9040014,3.31544609 L31.9476188,3.66120089 C32.176895,3.63254628 32.4067731,3.60504466 32.6372295,3.57870109 Z M48.1683337,3.20613067 L47.4735535,3.13284968 L47.4386707,3.47959083 L48.1294681,3.55244979 L48.1683337,3.20613067 Z M33.9902619,3.08797442 L33.2953854,3.15641077 L33.3312935,3.50304768 L34.0227756,3.43494488 L33.9902619,3.08797442 Z M46.7785676,3.06680811 C46.5474965,3.04604839 46.3157132,3.02641517 46.0832377,3.00791935 L46.0554603,3.35529953 C46.2864829,3.37367964 46.5170375,3.39320615 46.7471025,3.41387491 L46.7785676,3.06680811 Z M35.4114515,3.31976011 L35.3857267,2.97222229 L34.6897199,3.02636246 L34.7188762,3.37363014 C34.9492724,3.3545299 35.180138,3.33657189 35.4114515,3.31976011 Z M45.3843011,2.95589277 C45.1526634,2.9398334 44.9203666,2.9249008 44.6874303,2.91110556 L44.6665775,3.25896832 L45.3602227,3.30354792 L45.3843011,2.95589277 Z M36.7842866,2.88477247 C36.5512252,2.89699207 36.3187861,2.91034905 36.0869888,2.92483292 L36.1088102,3.27263646 C36.3395802,3.2582168 36.5707592,3.24493411 36.8023267,3.23279192 L36.7842866,2.88477247 Z M43.9878157,2.87319619 L43.2911244,2.84241272 L43.2770948,3.19061625 L43.9706653,3.22126035 L43.9878157,2.87319619 Z M38.1825339,2.82542845 L37.484835,2.85155676 L37.4996069,3.19972956 L38.1939357,3.17372743 L38.1825339,2.82542845 Z M42.5940301,2.81851985 L41.895005,2.80145466 L41.8884203,3.14987761 L42.5835048,3.16684641 L42.5940301,2.81851985 Z M39.5883232,3.14218407 L39.5837286,2.79372937 L38.8856927,2.80606782 L38.8936001,3.15446328 C39.1248824,3.14924156 39.356463,3.14514758 39.5883232,3.14218407 Z M40.5,3.13636364 L41.1948084,3.13974272 L41.1983559,2.79127583 L40.5,2.78787879 L41.1982759,2.78787879 L41.2016178,2.44280616 L40.5,2.43939394 L40.5,3.13636364 Z M40.4979052,2.78787879 L40.284931,2.78857576 L40.2857459,3.13668462 L40.4980699,3.13636366 L40.4979052,2.78787879 Z M41.8951552,2.78787879 L42.5941293,2.78787879 L42.6040195,2.47017756 C42.370343,2.46332225 42.1363495,2.45760906 41.9020582,2.45304085 L41.8951552,2.78787879 Z M43.2931034,2.78787879 L43.9913793,2.78787879 L44.0050172,2.52513455 C43.7718782,2.5136728 43.5383686,2.50335483 43.3045083,2.49418387 L43.2931034,2.78787879 Z M44.6945431,2.78787879 L45.3956121,2.78787879 L45.4086092,2.60825355 C45.1754737,2.59208995 44.9419086,2.57707826 44.7079347,2.56322215 L44.6945431,2.78787879 Z M46.1001724,2.78787879 L46.8033362,2.78787879 L46.8096992,2.71971135 C46.5772633,2.69882958 46.3443373,2.67910223 46.1109431,2.66053344 L46.1001724,2.78787879 Z M35.3725603,2.78787879 L35.3607402,2.62463082 L34.6610785,2.67905209 L34.6700948,2.78787879 L35.3725603,2.78787879 Z M36.7788879,2.78787879 L36.7656946,2.53678196 L36.0651821,2.57702848 L36.077819,2.78787879 L36.7788879,2.78787879 Z M38.1810259,2.78787879 L38.1712115,2.4771269 L37.4699641,2.50338816 L37.4820517,2.78787879 L38.1810259,2.78787879 Z M39.5831638,2.78787879 L39.5793822,2.44527151 L39.228379,2.45061645 C39.1114495,2.45268328 38.9945921,2.45503518 38.8778095,2.45767182 L38.8848879,2.78787879 L39.5831638,2.78787879 Z M40.4979052,2.78787879 L40.498051,2.43939397 L40.2836493,2.43971807 L40.2842328,2.78787879 L40.4979052,2.78787879 Z" id="椭圆形备份" fill="#FF77A3" fill-rule="nonzero"></path>
            <path d="M29.1953727,7.84151056 C29.271304,7.87485151 29.3327641,7.92953269 29.3702384,7.99708882 L29.5788318,8.37312668 C29.6643933,8.52737102 29.8297841,8.63428062 30.0211054,8.65901485 L30.4875344,8.71931532 C30.6979664,8.74652021 30.8437672,8.92034722 30.8131897,9.1075688 C30.8010135,9.18212142 30.7615537,9.25102373 30.7009189,9.30360884 L30.3634077,9.5963135 C30.2249664,9.71637597 30.1617927,9.88935933 30.1944743,10.0588903 L30.2741499,10.4721959 C30.3100959,10.658661 30.1693364,10.8357467 29.9597547,10.867728 C29.8762982,10.8804631 29.7904505,10.8683659 29.7155019,10.8333091 L29.2983151,10.6381727 C29.1271922,10.558131 28.9227578,10.558131 28.7516349,10.6381727 L28.3344481,10.8333091 C28.146232,10.921346 27.9134371,10.856964 27.814486,10.6895079 C27.7750832,10.622826 27.7614862,10.5464472 27.7758001,10.4721959 L27.8554757,10.0588903 C27.8881573,9.88935933 27.8249836,9.71637597 27.6865423,9.5963135 L27.3490311,9.30360884 C27.196761,9.17155354 27.1936453,8.95467753 27.3420719,8.81920271 C27.4011762,8.76525593 27.4786205,8.73014845 27.5624156,8.71931532 L28.0288446,8.65901485 C28.2201659,8.63428062 28.3855567,8.52737102 28.4711182,8.37312668 L28.6797116,7.99708882 C28.7738196,7.82743728 29.004689,7.75778252 29.1953727,7.84151056 Z M52.7505451,7.84151056 C52.8264764,7.87485151 52.8879365,7.92953269 52.9254109,7.99708882 L53.1340042,8.37312668 C53.2195657,8.52737102 53.3849566,8.63428062 53.5762778,8.65901485 L54.0427068,8.71931532 C54.2531388,8.74652021 54.3989396,8.92034722 54.3683621,9.1075688 C54.3561859,9.18212142 54.3167261,9.25102373 54.2560913,9.30360884 L53.9185802,9.5963135 C53.7801388,9.71637597 53.7169651,9.88935933 53.7496467,10.0588903 L53.8293223,10.4721959 C53.8652683,10.658661 53.7245089,10.8357467 53.5149272,10.867728 C53.4314706,10.8804631 53.3456229,10.8683659 53.2706743,10.8333091 L52.8534875,10.6381727 C52.6823646,10.558131 52.4779302,10.558131 52.3068073,10.6381727 L51.8896205,10.8333091 C51.7014044,10.921346 51.4686095,10.856964 51.3696584,10.6895079 C51.3302556,10.622826 51.3166586,10.5464472 51.3309726,10.4721959 L51.4106481,10.0588903 C51.4433297,9.88935933 51.380156,9.71637597 51.2417147,9.5963135 L50.9042035,9.30360884 C50.7519335,9.17155354 50.7488177,8.95467753 50.8972443,8.81920271 C50.9563486,8.76525593 51.0337929,8.73014845 51.117588,8.71931532 L51.584017,8.65901485 C51.7753383,8.63428062 51.9407291,8.52737102 52.0262906,8.37312668 L52.234884,7.99708882 C52.328992,7.82743728 52.5598614,7.75778252 52.7505451,7.84151056 Z M40.9729589,6.30817723 C41.0488902,6.34151817 41.1103503,6.39619935 41.1478246,6.46375549 L41.356418,6.83979335 C41.4419795,6.99403769 41.6073704,7.10094728 41.7986916,7.12568152 L42.2651206,7.18598199 C42.4755526,7.21318688 42.6213534,7.38701388 42.5907759,7.57423547 C42.5785997,7.64878809 42.5391399,7.71769039 42.4785051,7.77027551 L42.1409939,8.06298016 C42.0025526,8.18304264 41.9393789,8.356026 41.9720605,8.52555693 L42.0517361,8.93886254 C42.0876821,9.12532762 41.9469226,9.30241338 41.7373409,9.33439464 C41.6538844,9.34712975 41.5680367,9.33503254 41.4930881,9.29997579 L41.0759013,9.10483936 C40.9047784,9.0247977 40.700344,9.0247977 40.5292211,9.10483936 L40.1120343,9.29997579 C39.9238182,9.38801266 39.6910233,9.32363067 39.5920722,9.1561746 C39.5526694,9.08949271 39.5390724,9.01311391 39.5533864,8.93886254 L39.6330619,8.52555693 C39.6657435,8.356026 39.6025698,8.18304264 39.4641285,8.06298016 L39.1266173,7.77027551 C38.9743473,7.6382202 38.9712315,7.42134419 39.1196581,7.28586938 C39.1787624,7.2319226 39.2562067,7.19681512 39.3400018,7.18598199 L39.8064308,7.12568152 C39.9977521,7.10094728 40.1631429,6.99403769 40.2487044,6.83979335 L40.4572978,6.46375549 C40.5514058,6.29410395 40.7822752,6.22444919 40.9729589,6.30817723 Z" id="形状结合" fill="#FF77A3"></path>
            <text id="收费用章" font-family="PingFangSC-Regular, PingFang SC" font-size="7" font-weight="normal" fill="#FF77A3">
                <tspan x="27.1640164" y="37.5749684">收费用章</tspan>
            </text>
            <text id="已交费" font-family="PingFangSC-Regular, PingFang SC" font-size="11.2" font-weight="normal" fill="#FF4974">
                <tspan x="23.7867071" y="27.2399801">已交费</tspan>
            </text>
        </g>
    </g>
</svg>